# xmcd CD database file
#
# Track frame offsets:
#	150
#	121938
#	131838
#	141738
#	164733
#	180372
#
# Disc length: 4025 seconds
#
# Revision: 0
# Processed by: cddbd v1.5.1PL0 Copyright (c) Steve Scherf et al.
# Submitted via: CDex 1.51
#
DISCID=5a0fb706
DTITLE=Relaxing Music - Cd New Age
DYEAR=1996
DGENRE=New Age
TTITLE0=Rom Dati
TTITLE1=Rainforest, Stillness
TTITLE2=Thunderstorm, Out In The Fields
TTITLE3=Soundscape - Asestar
TTITLE4=Tourtles - Asestar
TTITLE5=Concerto Per Violino In D Major - Ludwing Van Beethoven
EXTD=YEAR: 1996
EXTT0=
EXTT1=
EXTT2=
EXTT3=
EXTT4=
EXTT5=
PLAYORDER=
